<svg xmlns="http://www.w3.org/2000/svg" viewBox="0 0 64 64">
  <defs>
    <linearGradient id="g" x1="0%" y1="0%" x2="100%" y2="100%">
      <stop offset="0%" stop-color="#3b82f6" />
      <stop offset="100%" stop-color="#8b5cf6" />
    </linearGradient>
  </defs>
  <rect x="4" y="4" width="56" height="56" rx="16" fill="#0f172a" />
  <rect x="10" y="10" width="44" height="44" rx="12" fill="url(#g)" opacity="0.85" />
  <path
    d="M28 20h8a6 6 0 0 1 6 6v12a6 6 0 0 1-6 6h-8a6 6 0 0 1-6-6V26a6 6 0 0 1 6-6zm-2 8v8h12v-8H26zm-6-8h-4v24h4V20zm24 0h-4v24h4V20z"
    fill="#e2e8f0"
  />
</svg>
